<svg id="Layer_1" data-name="Layer 1" xmlns="http://www.w3.org/2000/svg" xmlns:xlink="http://www.w3.org/1999/xlink" viewBox="0 0 64 64"><defs><style>.cls-1,.cls-3{fill:#fff;}.cls-1{opacity:0;}.cls-2{fill:url(#linear-gradient);}</style><linearGradient id="linear-gradient" x1="24.69" y1="4.21" x2="43.9" y2="63.32" gradientUnits="userSpaceOnUse"><stop offset="0.28" stop-color="#38ade1"/><stop offset="0.78" stop-color="#2a9bd6"/><stop offset="1" stop-color="#2391d0"/></linearGradient></defs><title>32_ttyh</title><rect class="cls-1" width="64" height="64"/><path class="cls-2" d="M27.94,3.49,3.33,21A7,7,0,0,0,.75,28.91l9.34,28.16a7,7,0,0,0,6.64,4.79H47.27a7,7,0,0,0,6.64-4.79l9.34-28.16A7,7,0,0,0,60.67,21L36.06,3.49A7,7,0,0,0,27.94,3.49Z"/><path class="cls-3" d="M25.34,26.38H18.9a1.52,1.52,0,0,1-1.52-1.52V22.39a1.52,1.52,0,0,1,1.52-1.52H30.44A1.52,1.52,0,0,1,32,22.39v8.36H34.7c5.88,0,11.06,2.59,11.06,8.58,0,6.77-4.88,9.11-10.84,9.11H26.86a1.53,1.53,0,0,1-1.52-1.52Zm9.21,16.84c3.07,0,4.77-1.07,4.77-3.78,0-2.22-1.66-3.44-5-3.44H32v7.22Z"/></svg>