<?xml version="1.0" encoding="UTF-8" standalone="no"?>
<!-- Created with Inkscape (http://www.inkscape.org/) -->

<svg
   xmlns:dc="http://purl.org/dc/elements/1.1/"
   xmlns:cc="http://creativecommons.org/ns#"
   xmlns:rdf="http://www.w3.org/1999/02/22-rdf-syntax-ns#"
   xmlns:svg="http://www.w3.org/2000/svg"
   xmlns="http://www.w3.org/2000/svg"
   xmlns:xlink="http://www.w3.org/1999/xlink"
   xmlns:sodipodi="http://sodipodi.sourceforge.net/DTD/sodipodi-0.dtd"
   xmlns:inkscape="http://www.inkscape.org/namespaces/inkscape"
   width="64px"
   height="64px"
   id="svg4099"
   version="1.1"
   inkscape:version="0.91 r13725"
   sodipodi:docname="icon.svg"
   inkscape:export-filename="/home/raptor/Разработка/graphic/ttyh_logo/1.2/icon.png"
   inkscape:export-xdpi="90"
   inkscape:export-ydpi="90">
  <defs
     id="defs4101">
    <linearGradient
       id="linearGradient3856">
      <stop
         style="stop-color:#217ada;stop-opacity:1;"
         offset="0"
         id="stop3858" />
      <stop
         style="stop-color:#004687;stop-opacity:1;"
         offset="1"
         id="stop3860" />
    </linearGradient>
    <linearGradient
       id="linearGradient3886">
      <stop
         style="stop-color:#4d4d4d;stop-opacity:1;"
         offset="0"
         id="stop3888" />
      <stop
         style="stop-color:#0c0c0c;stop-opacity:1;"
         offset="1"
         id="stop3890" />
    </linearGradient>
    <linearGradient
       id="linearGradient3816">
      <stop
         style="stop-color:#515151;stop-opacity:1;"
         offset="0"
         id="stop3818" />
      <stop
         style="stop-color:#3b3838;stop-opacity:1;"
         offset="1"
         id="stop3820" />
    </linearGradient>
    <linearGradient
       id="linearGradient4915">
      <stop
         style="stop-color:#4278a5;stop-opacity:1;"
         offset="0"
         id="stop4917" />
      <stop
         style="stop-color:#003468;stop-opacity:1;"
         offset="1"
         id="stop4919" />
    </linearGradient>
    <linearGradient
       id="linearGradient4263">
      <stop
         id="stop4265"
         offset="0"
         style="stop-color:#000000;stop-opacity:1;" />
      <stop
         style="stop-color:#333333;stop-opacity:1;"
         offset="0.13"
         id="stop4579" />
      <stop
         style="stop-color:#cccccc;stop-opacity:1;"
         offset="0.87"
         id="stop4575" />
      <stop
         id="stop4267"
         offset="1"
         style="stop-color:#ffffff;stop-opacity:1" />
    </linearGradient>
    <linearGradient
       id="linearGradient25737">
      <stop
         style="stop-color:#0000ff;stop-opacity:1;"
         offset="0"
         id="stop25739" />
      <stop
         id="stop25747"
         offset="0.25"
         style="stop-color:#3fc0c0;stop-opacity:1" />
      <stop
         id="stop25745"
         offset="0.5"
         style="stop-color:#00ff00;stop-opacity:1;" />
      <stop
         style="stop-color:#c0c000;stop-opacity:1"
         offset="0.75"
         id="stop25749" />
      <stop
         style="stop-color:#ff0000;stop-opacity:1;"
         offset="1"
         id="stop25741" />
    </linearGradient>
    <linearGradient
       id="linearGradient6172">
      <stop
         id="stop6174"
         offset="0"
         style="stop-color:#000000;stop-opacity:1;" />
      <stop
         style="stop-color:#333333;stop-opacity:1;"
         offset="0.13"
         id="stop6176" />
      <stop
         style="stop-color:#cccccc;stop-opacity:1;"
         offset="0.87"
         id="stop6178" />
      <stop
         id="stop6180"
         offset="1"
         style="stop-color:#ffffff;stop-opacity:1" />
    </linearGradient>
    <linearGradient
       id="linearGradient6183">
      <stop
         id="stop6185"
         offset="0"
         style="stop-color:#000000;stop-opacity:1;" />
      <stop
         style="stop-color:#333333;stop-opacity:1;"
         offset="0.13"
         id="stop6187" />
      <stop
         style="stop-color:#cccccc;stop-opacity:1;"
         offset="0.87"
         id="stop6189" />
      <stop
         id="stop6191"
         offset="1"
         style="stop-color:#ffffff;stop-opacity:1" />
    </linearGradient>
    <linearGradient
       id="linearGradient6208">
      <stop
         id="stop6210"
         offset="0"
         style="stop-color:#1e88e5;stop-opacity:1" />
      <stop
         id="stop6216"
         offset="1"
         style="stop-color:#0d47a1;stop-opacity:1" />
    </linearGradient>
    <filter
       inkscape:collect="always"
       style="color-interpolation-filters:sRGB"
       id="filter4216"
       x="-0.011999758"
       width="1.0239995"
       y="-0.012000242"
       height="1.0240005">
      <feGaussianBlur
         inkscape:collect="always"
         stdDeviation="0.21910305"
         id="feGaussianBlur4218" />
    </filter>
    <linearGradient
       inkscape:collect="always"
       xlink:href="#linearGradient6208"
       id="linearGradient4256"
       x1="32"
       y1="0"
       x2="32"
       y2="64"
       gradientUnits="userSpaceOnUse" />
  </defs>
  <sodipodi:namedview
     id="base"
     pagecolor="#ffffff"
     bordercolor="#666666"
     borderopacity="1.0"
     inkscape:pageopacity="0.0"
     inkscape:pageshadow="2"
     inkscape:zoom="5.6568542"
     inkscape:cx="0.14536988"
     inkscape:cy="29.02141"
     inkscape:current-layer="layer4"
     showgrid="false"
     inkscape:document-units="px"
     inkscape:grid-bbox="true"
     inkscape:showpageshadow="false"
     inkscape:snap-grids="true"
     inkscape:window-width="1920"
     inkscape:window-height="1025"
     inkscape:window-x="-4"
     inkscape:window-y="-3"
     inkscape:window-maximized="1"
     showguides="false"
     inkscape:snap-bbox="true"
     inkscape:snap-intersection-paths="false"
     inkscape:snap-page="true"
     inkscape:bbox-nodes="true"
     inkscape:object-nodes="true"
     inkscape:snap-others="true"
     inkscape:snap-smooth-nodes="true"
     inkscape:snap-midpoints="false"
     inkscape:snap-object-midpoints="true"
     inkscape:snap-center="false"
     inkscape:snap-text-baseline="false"
     inkscape:object-paths="false"
     inkscape:snap-bbox-midpoints="false"
     inkscape:snap-bbox-edge-midpoints="false"
     inkscape:bbox-paths="false"
     inkscape:snap-to-guides="true"
     inkscape:snap-nodes="true">
    <inkscape:grid
       type="xygrid"
       id="grid4107"
       empspacing="8"
       visible="true"
       enabled="true"
       snapvisiblegridlinesonly="true"
       spacingx="1px"
       spacingy="1px" />
  </sodipodi:namedview>
  <metadata
     id="metadata4104">
    <rdf:RDF>
      <cc:Work
         rdf:about="">
        <dc:format>image/svg+xml</dc:format>
        <dc:type
           rdf:resource="http://purl.org/dc/dcmitype/StillImage" />
        <dc:title />
      </cc:Work>
    </rdf:RDF>
  </metadata>
  <g
     inkscape:groupmode="layer"
     id="layer4"
     inkscape:label="plate"
     style="display:inline">
    <path
       style="color:#000000;font-style:normal;font-variant:normal;font-weight:normal;font-stretch:normal;font-size:medium;line-height:normal;font-family:sans-serif;text-indent:0;text-align:start;text-decoration:none;text-decoration-line:none;text-decoration-style:solid;text-decoration-color:#000000;letter-spacing:normal;word-spacing:normal;text-transform:none;direction:ltr;block-progression:tb;writing-mode:lr-tb;baseline-shift:baseline;text-anchor:start;white-space:normal;clip-rule:nonzero;display:inline;overflow:visible;visibility:visible;opacity:1;isolation:auto;mix-blend-mode:normal;color-interpolation:sRGB;color-interpolation-filters:linearRGB;solid-color:#000000;solid-opacity:1;fill:url(#linearGradient4256);fill-opacity:1;fill-rule:nonzero;stroke:none;stroke-width:5;stroke-linecap:square;stroke-linejoin:miter;stroke-miterlimit:4;stroke-dasharray:none;stroke-dashoffset:0;stroke-opacity:1;color-rendering:auto;image-rendering:auto;shape-rendering:auto;text-rendering:auto;enable-background:accumulate"
       d="m 31.999274,2.0012938 c -0.887417,0 -1.263649,0.2225808 -1.724095,0.4268107 -0.460444,0.2042299 -0.921478,0.4544261 -1.430192,0.7544054 -1.017415,0.5999613 -2.213819,1.4009992 -3.564234,2.354946 -2.700832,1.9078942 -5.991725,4.42045 -9.223228,6.9600061 -3.231516,2.539556 -6.3981183,5.102358 -8.8207549,7.094792 -1.2113051,0.996214 -2.236191,1.848969 -2.9932847,2.487856 -0.757096,0.638884 -1.0396476,0.841562 -1.503196,1.315999 -0.8134232,0.832514 -0.6984651,1.324863 -0.7263275,1.63985 -0.02793,0.314988 -0.012302,0.532334 0.00554,0.75628 0.037231,0.447886 0.1126833,0.894095 0.2171442,1.424572 0.2089014,1.060956 0.540964,2.419493 0.964066,4.01726 0.8462305,3.195537 2.0561934,7.322127 3.3246367,11.452752 1.2684423,4.130625 2.5936106,8.256414 3.6653242,11.428414 0.535857,1.586 1.006552,2.931197 1.385264,3.940511 0.189362,0.504655 0.352944,0.921931 0.505433,1.272941 0.07612,0.175507 0.148916,0.333589 0.237751,0.503564 0.08886,0.169974 0.09242,0.301439 0.522274,0.741302 0.656484,0.671888 0.941979,0.624798 1.186836,0.700117 0.244846,0.07532 0.439616,0.113563 0.645834,0.149759 0.412409,0.07238 0.859678,0.122913 1.394616,0.170349 1.069865,0.09488 2.464494,0.168805 4.108994,0.228383 C 23.466661,61.941305 27.730672,62 31.999201,62 c 4.268542,0 8.53254,-0.05868 11.821525,-0.177837 1.644497,-0.05959 3.039121,-0.133512 4.108986,-0.228383 0.534944,-0.04742 0.984086,-0.09796 1.396491,-0.170349 0.20622,-0.0362 0.399115,-0.07444 0.643977,-0.149759 0.244838,-0.07531 0.53221,-0.02822 1.188692,-0.700117 0.429768,-0.439863 0.431576,-0.571328 0.520414,-0.741302 0.0888,-0.169975 0.161494,-0.328057 0.237741,-0.503564 0.152481,-0.35101 0.316072,-0.768286 0.505424,-1.272941 0.378727,-1.009314 0.851293,-2.354511 1.387141,-3.940511 1.07172,-3.172 2.395025,-7.297789 3.663447,-11.428414 1.268445,-4.130625 2.478429,-8.257215 3.324638,-11.452752 0.423116,-1.597767 0.755166,-2.956304 0.964074,-4.01726 0.104463,-0.530477 0.179916,-0.976684 0.217148,-1.424572 0.01868,-0.223946 0.03338,-0.441292 0.006,-0.75628 -0.02796,-0.314987 0.08712,-0.807335 -0.726332,-1.63985 C 60.795028,22.921702 60.512464,22.718994 59.755371,22.08011 58.998277,21.441224 57.973404,20.588468 56.762083,19.592254 54.339392,17.59982 51.172766,15.03702 47.941256,12.497462 44.709734,9.9579059 41.418857,7.4453501 38.718038,5.5374559 37.36761,4.5835091 36.171206,3.7824712 35.153804,3.1825099 34.645078,2.8825306 34.184055,2.6323344 33.72361,2.4281045 33.263154,2.2238746 32.886933,2.0012938 31.999504,2.0012938 Z"
       id="path3797-7-6-6"
       inkscape:connector-curvature="0"
       sodipodi:nodetypes="sssssssscccsssccccccsssscccscccsssccccsssscsss" />
    <path
       style="color:#000000;font-style:normal;font-variant:normal;font-weight:normal;font-stretch:normal;font-size:medium;line-height:normal;font-family:sans-serif;text-indent:0;text-align:start;text-decoration:none;text-decoration-line:none;text-decoration-style:solid;text-decoration-color:#000000;letter-spacing:normal;word-spacing:normal;text-transform:none;direction:ltr;block-progression:tb;writing-mode:lr-tb;baseline-shift:baseline;text-anchor:start;white-space:normal;clip-rule:nonzero;display:inline;overflow:visible;visibility:visible;opacity:0.2;isolation:auto;mix-blend-mode:normal;color-interpolation:sRGB;color-interpolation-filters:linearRGB;solid-color:#000000;solid-opacity:1;fill:#000000;fill-opacity:1;fill-rule:nonzero;stroke:none;stroke-width:5;stroke-linecap:square;stroke-linejoin:miter;stroke-miterlimit:4;stroke-dasharray:none;stroke-dashoffset:0;stroke-opacity:1;color-rendering:auto;image-rendering:auto;shape-rendering:auto;text-rendering:auto;enable-background:accumulate"
       d="m 2.104672,24.357422 c -0.09345,0.290086 -0.07706,0.511071 -0.0918,0.677734 -0.0279,0.314988 -0.01244,0.533867 0.00586,0.757813 0.0372,0.447886 0.1123399,0.893351 0.2167999,1.423828 0.2089,1.060956 0.54173,2.419811 0.96484,4.017578 0.84623,3.195537 2.05578,7.3225 3.32422,11.453125 1.26845,4.130625 2.5943,8.255734 3.6660201,11.427734 0.53585,1.586 1.006049,2.930139 1.384759,3.939453 0.18936,0.504655 0.35338,0.922428 0.50586,1.273438 0.0761,0.175507 0.14944,0.333931 0.23828,0.503906 0.0889,0.169974 0.09162,0.302325 0.52149,0.742188 0.65648,0.671888 0.94264,0.623899 1.1875,0.699218 0.24484,0.07532 0.43831,0.114195 0.64453,0.150391 0.41241,0.07238 0.85959,0.122486 1.39453,0.169922 1.06986,0.09488 2.46488,0.168937 4.10938,0.228516 C 23.465931,61.941407 27.730671,62 31.999201,62 c 4.26854,0 8.53133,-0.05858 11.82031,-0.177734 1.6445,-0.05959 3.03951,-0.133645 4.10938,-0.228516 0.53494,-0.04742 0.98407,-0.09753 1.39648,-0.169922 0.20622,-0.0362 0.39967,-0.07507 0.64454,-0.150391 0.24484,-0.07531 0.53296,-0.02732 1.18945,-0.699218 0.42976,-0.439863 0.43069,-0.572214 0.51953,-0.742188 0.0888,-0.169975 0.16203,-0.328399 0.23828,-0.503906 0.15248,-0.35101 0.31455,-0.768783 0.50391,-1.273438 0.37872,-1.009314 0.85282,-2.353453 1.38867,-3.939453 1.07172,-3.172 2.39369,-7.297109 3.66211,-11.427734 1.26845,-4.130625 2.47996,-8.257588 3.32617,-11.453125 0.42312,-1.597767 0.75398,-2.956622 0.96289,-4.017578 0.10446,-0.530477 0.17957,-0.97594 0.2168,-1.423828 0.0187,-0.223946 0.03326,-0.442825 0.0059,-0.757813 -0.01482,-0.166663 0.0016,-0.387649 -0.0918,-0.677734 -0.03989,0.277679 -0.0678,0.539196 -0.13086,0.859375 -0.20891,1.060956 -0.53978,2.419811 -0.96289,4.017578 -0.84621,3.195537 -2.05772,7.3225 -3.32617,11.453125 -1.26842,4.130625 -2.59039,8.255734 -3.66211,11.427734 -0.53584,1.586 -1.00994,2.930139 -1.38867,3.939453 -0.18935,0.504655 -0.35143,0.922428 -0.50391,1.273438 -0.07625,0.175507 -0.14948,0.333931 -0.23828,0.503906 -0.08884,0.169974 -0.08976,0.302325 -0.51953,0.742188 -0.65648,0.671897 -0.94461,0.623908 -1.18945,0.699218 -0.24486,0.07532 -0.43832,0.114191 -0.64454,0.150391 -0.4124,0.07239 -0.86153,0.122502 -1.39648,0.169922 -1.06986,0.09487 -2.46489,0.168925 -4.10938,0.228516 C 40.530561,59.941423 36.267781,60 31.999241,60 c -4.26853,0 -8.53328,-0.05859 -11.82226,-0.177734 -1.6445,-0.05958 -3.03951,-0.133636 -4.10938,-0.228516 -0.53494,-0.04744 -0.98212,-0.09754 -1.39453,-0.169922 -0.20622,-0.0362 -0.39968,-0.07507 -0.64453,-0.150391 -0.24485,-0.07532 -0.53102,-0.02733 -1.1875,-0.699218 -0.42988,-0.439863 -0.43259,-0.572214 -0.52149,-0.742188 -0.08883,-0.169975 -0.16218,-0.328399 -0.23828,-0.503906 -0.15249,-0.35101 -0.3165,-0.768783 -0.50586,-1.273438 -0.37871,-1.009314 -0.848899,-2.353453 -1.384759,-3.939453 -1.0717101,-3.172 -2.3975801,-7.297109 -3.6660201,-11.427734 -1.26844,-4.130625 -2.47799,-8.257588 -3.32422,-11.453125 -0.42309,-1.597767 -0.75594,-2.956622 -0.96484,-4.017578 -0.06305,-0.320179 -0.09097,-0.581696 -0.13086,-0.859375 z"
       id="path3797-7-6-6-8"
       inkscape:connector-curvature="0" />
    <path
       style="color:#000000;font-style:normal;font-variant:normal;font-weight:normal;font-stretch:normal;font-size:medium;line-height:normal;font-family:sans-serif;text-indent:0;text-align:start;text-decoration:none;text-decoration-line:none;text-decoration-style:solid;text-decoration-color:#000000;letter-spacing:normal;word-spacing:normal;text-transform:none;direction:ltr;block-progression:tb;writing-mode:lr-tb;baseline-shift:baseline;text-anchor:start;white-space:normal;clip-rule:nonzero;display:inline;overflow:visible;visibility:visible;opacity:0.1;isolation:auto;mix-blend-mode:normal;color-interpolation:sRGB;color-interpolation-filters:linearRGB;solid-color:#000000;solid-opacity:1;fill:#bbdefb;fill-opacity:1;fill-rule:nonzero;stroke:none;stroke-width:5;stroke-linecap:square;stroke-linejoin:miter;stroke-miterlimit:4;stroke-dasharray:none;stroke-dashoffset:0;stroke-opacity:1;color-rendering:auto;image-rendering:auto;shape-rendering:auto;text-rendering:auto;enable-background:accumulate"
       d="m 31.999504,2.0012938 c -0.88741,0 -1.26416,0.223504 -1.72461,0.427734 -0.46044,0.204229 -0.92098,0.453928 -1.42969,0.753907 -1.01742,0.599961 -2.21403,1.401521 -3.56445,2.355468 -2.70083,1.907894 -5.99116,4.419429 -9.22266,6.9589852 -3.23152,2.539556 -6.39767,5.103269 -8.82031,7.095703 -1.2113,0.996214 -2.23705,1.849394 -2.99414,2.488281 -0.7571,0.638884 -1.04036,0.840016 -1.50391,1.314453 -0.81342,0.832514 -0.6987,1.325638 -0.72656,1.640625 -0.0279,0.314988 -0.01049,0.531914 0.00781,0.75586 3.6e-4,0.0043 0.00159,0.0094 0.00196,0.01367 0.0122,-0.31322 0.076,-0.754321 0.71679,-1.410157 0.46355,-0.474438 0.74681,-0.675568 1.50391,-1.314453 0.75709,-0.638886 1.78284,-1.492067 2.99414,-2.488281 2.42264,-1.992434 5.58879,-4.556147 8.82031,-7.095703 3.2315,-2.539556 6.52183,-5.0510902 9.22266,-6.9589852 1.35042,-0.953946 2.54703,-1.755506 3.56445,-2.355468 0.50871,-0.299979 0.96925,-0.549677 1.42969,-0.753907 0.46045,-0.20423 0.8372,-0.427734 1.72461,-0.427734 0.88743,0 1.26415,0.223504 1.72461,0.427734 0.46045,0.20423 0.92097,0.453928 1.42969,0.753907 1.01741,0.599962 2.21402,1.401522 3.56445,2.355468 2.70082,1.907895 5.99113,4.4194292 9.22266,6.9589852 3.23151,2.539558 6.39957,5.103269 8.82226,7.095703 1.21132,0.996214 2.2351,1.849395 2.99219,2.488281 0.75709,0.638885 1.04037,0.840046 1.50391,1.314453 0.6481,0.663309 0.70556,1.106154 0.71679,1.419922 6.4e-4,-0.0074 0.0033,-0.01606 0.0039,-0.02344 0.0187,-0.223946 0.03326,-0.440872 0.0059,-0.75586 -0.028,-0.314987 0.08687,-0.80811 -0.72656,-1.640625 -0.46354,-0.474407 -0.74682,-0.675569 -1.50391,-1.314453 -0.75709,-0.638886 -1.78087,-1.492067 -2.99219,-2.488281 -2.42269,-1.992434 -5.59075,-4.556145 -8.82226,-7.095703 -3.23153,-2.5395562 -6.52184,-5.0510912 -9.22266,-6.9589852 -1.35043,-0.953947 -2.54704,-1.755507 -3.56445,-2.355468 -0.50872,-0.299979 -0.96924,-0.549678 -1.42969,-0.753907 -0.46046,-0.20423 -0.83718,-0.427734 -1.72461,-0.427734 z"
       id="path3797-7-6-6-6"
       inkscape:connector-curvature="0" />
  </g>
  <g
     inkscape:groupmode="layer"
     id="layer5"
     inkscape:label="sign_shadow"
     style="display:inline">
    <path
       style="color:#000000;font-style:normal;font-variant:normal;font-weight:normal;font-stretch:normal;font-size:medium;line-height:normal;font-family:sans-serif;text-indent:0;text-align:start;text-decoration:none;text-decoration-line:none;text-decoration-style:solid;text-decoration-color:#000000;letter-spacing:normal;word-spacing:normal;text-transform:none;direction:ltr;block-progression:tb;writing-mode:lr-tb;baseline-shift:baseline;text-anchor:start;white-space:normal;clip-rule:nonzero;display:inline;overflow:visible;visibility:visible;opacity:1;isolation:auto;mix-blend-mode:normal;color-interpolation:sRGB;color-interpolation-filters:linearRGB;solid-color:#000000;solid-opacity:1;fill:#0d47a1;fill-opacity:1;fill-rule:nonzero;stroke:none;stroke-width:0.088;stroke-linecap:square;stroke-linejoin:miter;stroke-miterlimit:4;stroke-dasharray:none;stroke-dashoffset:0;stroke-opacity:1;filter:url(#filter4216);color-rendering:auto;image-rendering:auto;shape-rendering:auto;text-rendering:auto;enable-background:accumulate"
       d="m 32.000015,10.090138 c -0.64812,0 -0.9229,0.162561 -1.25918,0.311719 -0.336292,0.149158 -0.673002,0.331887 -1.044542,0.550976 -0.74306,0.438178 -1.61685,1.023212 -2.60312,1.719922 -1.97253,1.39342 -4.37602,3.228451 -6.73613,5.083203 -2.36012,1.854751 -4.67283,3.726479 -6.44219,5.181641 -0.88467,0.72758 -1.63319,1.350385 -2.18613,1.816992 -0.55294,0.466606 -0.7593,0.614631 -1.09785,0.961133 -0.59408,0.608022 -0.51012,0.967606 -0.53047,1.197656 -0.0204,0.23005 -0.009,0.388787 0.004,0.552344 0.0272,0.327112 0.0823,0.652998 0.15859,1.040429 0.15257,0.774863 0.39509,1.767063 0.7041,2.933984 0.61804,2.333843 1.50173,5.347675 2.42813,8.364454 0.9264,3.016779 1.89423,6.030028 2.67695,8.346679 0.39136,1.158326 0.73513,2.140784 1.01172,2.87793 0.1383,0.368573 0.25777,0.673329 0.36914,0.929687 0.0556,0.12818 0.10876,0.243634 0.17364,0.367774 0.0649,0.12414 0.0675,0.220155 0.38144,0.541406 0.47946,0.49071 0.68797,0.456319 0.8668,0.511328 0.17882,0.05501 0.32107,0.08294 0.47168,0.109375 0.3012,0.05287 0.62786,0.08977 1.01855,0.124414 0.78137,0.06929 1.79993,0.123285 3.00098,0.166798 2.40209,0.08702 5.51629,0.129882 8.633792,0.129882 3.1175,0 6.231689,-0.04286 8.633779,-0.129882 1.20105,-0.04351 2.21961,-0.09751 3.00098,-0.166798 0.39069,-0.03464 0.71872,-0.07154 1.01992,-0.124414 0.15061,-0.02644 0.29149,-0.05436 0.47032,-0.109375 0.17882,-0.05501 0.3887,-0.02061 0.86816,-0.511328 0.31388,-0.321251 0.3152,-0.417266 0.38008,-0.541406 0.0649,-0.12414 0.11795,-0.239594 0.17363,-0.367774 0.11137,-0.256358 0.23084,-0.561114 0.36914,-0.929687 0.2766,-0.737146 0.62173,-1.719604 1.01309,-2.87793 0.78272,-2.316651 1.74919,-5.3299 2.67558,-8.346679 0.9264,-3.016779 1.8101,-6.030611 2.42813,-8.364454 0.30902,-1.166921 0.55153,-2.159121 0.7041,-2.933984 0.0763,-0.387431 0.1314,-0.713316 0.1586,-1.040429 0.0136,-0.163557 0.0244,-0.322294 0.004,-0.552344 -0.0204,-0.23005 0.0636,-0.589633 -0.53048,-1.197656 -0.33854,-0.346481 -0.54491,-0.494527 -1.09785,-0.961133 -0.55294,-0.466606 -1.30145,-1.089412 -2.18613,-1.816992 -1.76935,-1.455162 -4.08207,-3.326889 -6.44219,-5.181641 -2.36012,-1.854752 -4.7636,-3.689783 -6.736129,-5.083203 -0.98627,-0.69671 -1.86006,-1.281744 -2.60312,-1.719922 -0.37154,-0.219089 -0.70825,-0.401818 -1.04453,-0.550976 -0.33629,-0.149158 -0.61106,-0.311719 -1.25919,-0.311719 z m 0,3.59707 c 0.1431,0.07046 0.2959,0.145178 0.525,0.280274 0.59806,0.352672 1.42089,0.8989 2.3625,1.564062 1.88322,1.330325 4.258739,3.141096 6.592579,4.975196 2.33383,1.834098 4.63092,3.693631 6.38203,5.133788 0.87555,0.720079 1.61522,1.336724 2.15195,1.789649 0.19559,0.165053 0.15765,0.131857 0.31035,0.266601 -0.0105,0.05831 -0.009,0.06897 -0.0218,0.133984 -0.12508,0.635265 -0.35347,1.584614 -0.65215,2.7125 -0.59736,2.255775 -1.47355,5.246244 -2.39121,8.234571 -0.91765,2.988327 -1.87891,5.980745 -2.64687,8.253711 -0.38399,1.136483 -0.72092,2.095573 -0.97344,2.768555 -0.0502,0.133681 -0.0774,0.193989 -0.12031,0.303515 -0.0777,0.0081 -0.10348,0.01532 -0.19277,0.02324 -0.66978,0.05939 -1.65089,0.112217 -2.81778,0.154493 -2.33378,0.08455 -5.422779,0.128515 -8.508009,0.128515 -3.085232,0 -6.172862,-0.04397 -8.506632,-0.128515 -1.1669,-0.04227 -2.14938,-0.0951 -2.81915,-0.154493 -0.0893,-0.0079 -0.1151,-0.01511 -0.19277,-0.02324 -0.0429,-0.109526 -0.0702,-0.169834 -0.12031,-0.303515 -0.25253,-0.672982 -0.58946,-1.632072 -0.97344,-2.768555 -0.76797,-2.272966 -1.72922,-5.265384 -2.64688,-8.253711 -0.91766,-2.988327 -1.79385,-5.978796 -2.3912,-8.234571 -0.29869,-1.127886 -0.52707,-2.077235 -0.65215,-2.7125 -0.0128,-0.06501 -0.0114,-0.07567 -0.0219,-0.133984 0.1527,-0.134745 0.11476,-0.101547 0.31035,-0.266601 0.53673,-0.452926 1.2764,-1.06957 2.15195,-1.789649 1.75112,-1.440157 4.0482,-3.29969 6.38204,-5.133788 2.33384,-1.834099 4.70936,-3.644872 6.59258,-4.975196 0.9416,-0.665162 1.764432,-1.21139 2.362502,-1.564062 0.22909,-0.135096 0.38189,-0.209817 0.525,-0.280274 z m -10.150002,9.562109 0,3.5 1.75,0 3.85,0 0,18.694922 1.53261,0.191406 c 0,0 2.993882,0.398501 6.140052,-0.191406 1.57308,-0.294953 3.239779,-0.827721 4.630659,-1.957812 1.39088,-1.130091 2.39668,-2.970443 2.39668,-5.18711 0,-2.322727 -0.87147,-4.231671 -2.17383,-5.490625 -1.30236,-1.258953 -2.918279,-1.898048 -4.428319,-2.25039 -1.9498,-0.454953 -3.50839,-0.441851 -4.59785,-0.377344 l 0,-6.931641 -7.350002,0 -1.75,0 z m 9.756252,10.405665 c 0.87652,-0.007 2.03094,0.05156 3.1459,0.311718 1.11496,0.260158 2.12404,0.713446 2.790429,1.357617 0.66638,0.644172 1.10742,1.447727 1.10742,2.975 0,1.283334 -0.39421,1.894349 -1.10332,2.470508 -0.709119,0.576159 -1.842419,1.004524 -3.069339,1.23457 -1.28528,0.24099 -2.55476,0.271605 -3.52734,0.247462 l 0,-8.561329 c 0.25152,-0.01679 0.26631,-0.03242 0.65625,-0.03555 z"
       id="path3797-7-6-0"
       inkscape:connector-curvature="0"
       transform="matrix(1.1363636,0,0,1.1363637,-4.3636368,-3.363637)" />
  </g>
  <g
     inkscape:groupmode="layer"
     id="layer6"
     inkscape:label="sign"
     style="display:inline">
    <path
       style="color:#000000;font-style:normal;font-variant:normal;font-weight:normal;font-stretch:normal;font-size:medium;line-height:normal;font-family:sans-serif;text-indent:0;text-align:start;text-decoration:none;text-decoration-line:none;text-decoration-style:solid;text-decoration-color:#000000;letter-spacing:normal;word-spacing:normal;text-transform:none;direction:ltr;block-progression:tb;writing-mode:lr-tb;baseline-shift:baseline;text-anchor:start;white-space:normal;clip-rule:nonzero;display:inline;overflow:visible;visibility:visible;opacity:1;isolation:auto;mix-blend-mode:normal;color-interpolation:sRGB;color-interpolation-filters:linearRGB;solid-color:#000000;solid-opacity:1;fill:#eeeeee;fill-opacity:1;fill-rule:nonzero;stroke:none;stroke-width:5;stroke-linecap:square;stroke-linejoin:miter;stroke-miterlimit:4;stroke-dasharray:none;stroke-dashoffset:0;stroke-opacity:1;color-rendering:auto;image-rendering:auto;shape-rendering:auto;text-rendering:auto;enable-background:accumulate"
       d="m 32.000016,6.9660646 c -0.7365,0 -1.04875,0.1847284 -1.430886,0.3542262 -0.382148,0.1694978 -0.764773,0.3771444 -1.186978,0.6261092 -0.844386,0.4979295 -1.837329,1.1627409 -2.95809,1.9544569 -2.241512,1.5834321 -4.972751,3.6686951 -7.654694,5.7763671 -2.681954,2.107671 -5.310034,4.234635 -7.32067,5.888229 -1.005307,0.826796 -1.8558983,1.534529 -2.4842387,2.064764 -0.6283415,0.530234 -0.8628415,0.698444 -1.2475575,1.092197 -0.6750904,0.690934 -0.5796819,1.099552 -0.6028063,1.360972 -0.023181,0.26142 -0.010213,0.441803 0.00457,0.627664 0.030904,0.371718 0.093521,0.742043 0.180216,1.182305 0.1733755,0.880527 0.4489659,2.008027 0.8001138,3.334073 0.7023181,2.652095 1.7065117,6.076904 2.7592397,9.505062 1.052727,3.428159 2.152534,6.852304 3.041988,9.484863 0.444728,1.31628 0.835375,2.43271 1.149682,3.270376 0.157159,0.418832 0.292921,0.765145 0.419477,1.056461 0.06318,0.14566 0.123591,0.276858 0.197319,0.417926 0.07374,0.141068 0.0767,0.250176 0.433454,0.615234 0.544841,0.557625 0.781784,0.518544 0.985,0.581054 0.203205,0.06251 0.364852,0.09425 0.536,0.12429 0.342273,0.06007 0.713478,0.10201 1.157443,0.141379 0.887921,0.07874 2.045375,0.140097 3.410205,0.189544 2.729648,0.09888 6.268511,0.147593 9.811125,0.147593 3.542614,0 7.081466,-0.0487 9.811114,-0.147593 1.364829,-0.04945 2.522284,-0.110807 3.410205,-0.189544 0.443965,-0.03936 0.816727,-0.0813 1.159,-0.141379 0.171147,-0.03004 0.331238,-0.06178 0.534454,-0.12429 0.203205,-0.06251 0.441705,-0.02342 0.986546,-0.581054 0.356681,-0.365058 0.358181,-0.474166 0.431909,-0.615234 0.07374,-0.141068 0.134034,-0.272266 0.197306,-0.417926 0.126557,-0.291316 0.262319,-0.637629 0.419478,-1.056461 0.314318,-0.837666 0.706511,-1.954096 1.151238,-3.270376 0.889455,-2.632559 1.987716,-6.056704 3.040432,-9.484863 1.052727,-3.428158 2.056932,-6.852967 2.759239,-9.505062 0.351159,-1.326046 0.626738,-2.453546 0.800114,-3.334073 0.0867,-0.440262 0.149318,-0.810586 0.180227,-1.182305 0.01546,-0.185861 0.02772,-0.366244 0.0046,-0.627664 -0.02318,-0.26142 0.07228,-0.670037 -0.602818,-1.360972 C 55.898246,24.328685 55.663734,24.160451 55.035393,23.630217 54.407052,23.099983 53.556472,22.392249 52.551154,21.565453 50.540471,19.911859 47.91238,17.784897 45.230425,15.677224 42.54847,13.569552 39.817244,11.484289 37.575732,9.9008569 36.45497,9.1091409 35.462028,8.4443295 34.617641,7.9464 34.195436,7.6974352 33.812812,7.4897886 33.430675,7.3202908 33.048528,7.150793 32.736289,6.9660646 31.999778,6.9660646 Z m 0,4.0875794 c 0.162614,0.08007 0.33625,0.164975 0.596591,0.318494 0.679613,0.400764 1.614647,1.021477 2.684659,1.777343 2.140023,1.511733 4.839478,3.569427 7.491568,5.653631 2.65208,2.084204 5.26241,4.197309 7.252307,5.833852 0.994943,0.818271 1.835477,1.519004 2.445398,2.033691 0.222261,0.187561 0.179148,0.149838 0.352671,0.302956 -0.01194,0.06627 -0.01021,0.07837 -0.02478,0.152255 -0.142137,0.721891 -0.401671,1.800698 -0.74108,3.082386 -0.678818,2.563381 -1.674489,5.961641 -2.717284,9.357468 -1.042784,3.395826 -2.135125,6.796301 -3.007807,9.379217 -0.436352,1.291459 -0.819227,2.381333 -1.106182,3.146085 -0.05704,0.151911 -0.08796,0.220443 -0.136716,0.344903 -0.0883,0.0093 -0.117591,0.01741 -0.219057,0.02641 -0.761113,0.06749 -1.876011,0.127519 -3.202022,0.17556 -2.652023,0.09607 -6.16225,0.14604 -9.668194,0.14604 -3.505943,0 -7.014614,-0.04997 -9.666625,-0.14604 -1.326023,-0.04803 -2.442477,-0.108069 -3.203579,-0.17556 -0.101479,-0.0089 -0.130796,-0.01717 -0.219057,-0.02641 -0.04876,-0.12446 -0.07978,-0.192992 -0.136716,-0.344903 -0.286966,-0.764752 -0.669841,-1.854626 -1.106182,-3.146085 -0.872693,-2.582916 -1.965023,-5.983391 -3.007818,-9.379217 -1.042796,-3.395827 -2.038466,-6.794087 -2.717273,-9.357468 -0.33942,-1.281688 -0.598943,-2.360495 -0.74108,-3.082386 -0.01454,-0.07387 -0.01296,-0.08599 -0.02488,-0.152255 0.173523,-0.15312 0.130409,-0.115394 0.352671,-0.302956 0.60992,-0.514688 1.450454,-1.21542 2.445398,-2.033691 1.989908,-1.636543 4.600227,-3.749648 7.252318,-5.833852 2.652091,-2.084203 5.351545,-4.1419 7.491568,-5.653631 1.07,-0.755866 2.005034,-1.376579 2.684659,-1.777343 0.26033,-0.153519 0.433966,-0.238429 0.596591,-0.318494 z m -11.534091,10.866033 0,3.977274 1.988637,0 4.375,0 0,21.244231 1.741602,0.217506 c 0,0 3.402136,0.452843 6.977329,-0.217506 1.787591,-0.335175 3.681569,-0.940593 5.262114,-2.224788 1.580545,-1.284193 2.7235,-3.375503 2.7235,-5.894442 0,-2.639463 -0.990307,-4.808718 -2.470261,-6.239348 -1.479955,-1.430628 -3.316228,-2.156872 -5.032182,-2.557261 -2.215682,-0.516992 -3.986807,-0.502104 -5.22483,-0.4288 l 0,-7.876866 -8.352272,0 -1.988637,0 z m 11.086648,11.824621 c 0.996045,-0.008 2.307886,0.05859 3.574886,0.354225 1.267,0.295634 2.413682,0.810734 3.170943,1.542746 0.75725,0.732014 1.258432,1.645145 1.258432,3.380683 0,1.458334 -0.447966,2.152669 -1.253772,2.807395 -0.805818,0.654726 -2.09366,1.141505 -3.487887,1.402921 -1.460545,0.273852 -2.903136,0.308641 -4.008341,0.281206 l 0,-9.728783 c 0.285818,-0.01909 0.302625,-0.03684 0.745739,-0.04039 z"
       id="path3797-7-6"
       inkscape:connector-curvature="0" />
    <path
       style="color:#000000;font-style:normal;font-variant:normal;font-weight:normal;font-stretch:normal;font-size:medium;line-height:normal;font-family:sans-serif;text-indent:0;text-align:start;text-decoration:none;text-decoration-line:none;text-decoration-style:solid;text-decoration-color:#000000;letter-spacing:normal;word-spacing:normal;text-transform:none;direction:ltr;block-progression:tb;writing-mode:lr-tb;baseline-shift:baseline;text-anchor:start;white-space:normal;clip-rule:nonzero;display:inline;overflow:visible;visibility:visible;opacity:0.2;isolation:auto;mix-blend-mode:normal;color-interpolation:sRGB;color-interpolation-filters:linearRGB;solid-color:#000000;solid-opacity:1;fill:#ffffff;fill-opacity:1;fill-rule:nonzero;stroke:none;stroke-width:5;stroke-linecap:square;stroke-linejoin:miter;stroke-miterlimit:4;stroke-dasharray:none;stroke-dashoffset:0;stroke-opacity:1;color-rendering:auto;image-rendering:auto;shape-rendering:auto;text-rendering:auto;enable-background:accumulate"
       d="m 31.998812,6.9651772 c -0.7365,0 -1.049421,0.1856158 -1.431558,0.3551136 -0.382147,0.1694978 -0.762976,0.3769228 -1.185181,0.6258876 -0.844387,0.4979295 -1.837785,1.1614091 -2.958546,1.953125 -2.241511,1.5834316 -4.972977,3.6695826 -7.65492,5.7772546 -2.681955,2.107671 -5.311364,4.234635 -7.322001,5.888229 -1.005306,0.826796 -1.8552265,1.533863 -2.483568,2.064098 -0.6283404,0.530234 -0.8626245,0.698222 -1.2473404,1.091974 -0.6750915,0.690935 -0.5805681,1.101328 -0.6036936,1.362748 -0.023181,0.261421 -0.010213,0.440029 0.00457,0.625889 0.00457,0.05088 0.018979,0.111 0.024436,0.162021 0.032723,-0.247126 0.1388064,-0.56803 0.5748404,-1.014294 0.384716,-0.393752 0.619,-0.56174 1.2473415,-1.091974 0.6283405,-0.530235 1.4782611,-1.237303 2.4835681,-2.064098 2.010636,-1.653594 4.640045,-3.780558 7.322,-5.888229 2.681943,-2.107673 5.413409,-4.193823 7.65492,-5.777255 1.120762,-0.791716 2.11416,-1.4551954 2.958546,-1.953125 0.422204,-0.2489648 0.803034,-0.4563898 1.185182,-0.6258875 0.382136,-0.1694977 0.695056,-0.3551137 1.431556,-0.3551137 0.736512,0 1.04941,0.185616 1.431557,0.3551137 0.382137,0.1694977 0.762977,0.3769227 1.185182,0.6258875 0.844387,0.4979296 1.837784,1.161409 2.958545,1.953125 2.241512,1.583432 4.972966,3.669582 7.654921,5.777255 2.681955,2.107672 5.309148,4.234635 7.319773,5.888229 1.005318,0.826795 1.857454,1.533864 2.485796,2.064098 0.62834,0.530234 0.862636,0.698246 1.24734,1.091974 0.434705,0.444901 0.5395,0.765209 0.572626,1.012075 0.0056,-0.05034 0.02022,-0.10958 0.02444,-0.159802 0.01546,-0.18586 0.02988,-0.364467 0.0068,-0.625889 -0.02318,-0.261419 0.07136,-0.671812 -0.603693,-1.362748 -0.384705,-0.393727 -0.619,-0.56174 -1.247341,-1.091974 C 54.40655,23.098651 53.554414,22.391583 52.549096,21.564787 50.538471,19.911193 47.911278,17.784232 45.229323,15.676558 42.547368,13.568886 39.815914,11.482735 37.574402,9.8993034 36.453641,9.1075875 35.460243,8.4441079 34.615857,7.9461784 34.193652,7.6972136 33.812812,7.4897886 33.430675,7.3202908 33.048528,7.150793 32.73563,6.9651772 31.999118,6.9651772 Z m -11.534535,14.9547238 0,1.136364 1.988637,0 8.351829,0 0,-1.136364 -8.351829,0 -1.988637,0 z m -9.070932,6.003639 c -0.055,0.04661 -0.110795,0.09228 -0.217511,0.186436 0.01194,0.06627 0.01021,0.07704 0.02444,0.150923 0.142136,0.721891 0.401875,1.801142 0.741296,3.082831 0.678806,2.56338 1.673818,5.961418 2.716614,9.357244 1.042794,3.395827 2.136896,6.796524 3.00959,9.37944 0.436341,1.291457 0.81833,2.382441 1.105296,3.147193 0.05694,0.151911 0.08886,0.219557 0.137602,0.344017 0.0883,0.0093 0.116034,0.01766 0.217512,0.02664 0.761102,0.06749 1.878874,0.127304 3.204896,0.175338 2.652012,0.09606 6.159808,0.146484 9.665752,0.146484 3.505942,0 7.015942,-0.05042 9.667966,-0.146484 1.32601,-0.04804 2.441568,-0.107852 3.20268,-0.175338 0.101479,-0.0089 0.131432,-0.01743 0.219728,-0.02664 0.04875,-0.12446 0.0783,-0.192106 0.135386,-0.344017 0.286956,-0.764752 0.67116,-1.855736 1.107512,-3.147193 0.872682,-2.582916 1.96459,-5.983613 3.007375,-9.37944 1.042795,-3.395826 2.037795,-6.793864 2.716613,-9.357244 0.33941,-1.281689 0.59916,-2.36094 0.741296,-3.082831 0.01454,-0.07387 0.0125,-0.08466 0.02444,-0.150923 -0.106704,-0.09417 -0.162546,-0.139838 -0.217512,-0.186436 -0.14851,0.664157 -0.296784,1.334415 -0.548204,2.283826 -0.678818,2.563381 -1.673818,5.961418 -2.716614,9.357244 -1.042784,3.395827 -2.134692,6.796524 -3.007374,9.37944 -0.436352,1.291457 -0.820558,2.382441 -1.107512,3.147194 -0.05704,0.15191 -0.0866,0.219556 -0.135386,0.344017 -0.0883,0.0093 -0.118262,0.01764 -0.219728,0.02664 -0.761113,0.06749 -1.87667,0.127296 -3.202682,0.175337 -2.652022,0.09607 -6.162022,0.146484 -9.667966,0.146484 -3.505942,0 -7.013738,-0.05042 -9.66575,-0.146484 -1.326022,-0.04803 -2.443795,-0.107841 -3.204898,-0.175337 -0.101478,-0.0089 -0.12925,-0.01739 -0.21751,-0.02664 C 18.861929,52.3108 18.830003,52.243154 18.773081,52.091244 18.486116,51.326491 18.104126,50.235507 17.667786,48.94405 16.795092,46.361134 15.70099,42.960437 14.658194,39.56461 13.6154,36.168784 12.620388,32.770747 11.941581,30.207366 11.69015,29.257955 11.541876,28.587697 11.393376,27.92354 Z m 20.439012,1.835495 c -0.374761,0.0036 -0.718114,0.0194 -1.027614,0.03772 l 0,1.136363 c 1.238023,-0.0733 3.011148,-0.08864 5.22683,0.42836 1.715955,0.400388 3.551557,1.126189 5.031511,2.556818 1.361591,1.316204 2.298614,3.262103 2.44141,5.619673 0.01136,-0.172015 0.02886,-0.340796 0.02886,-0.517134 0,-2.639462 -0.990307,-4.808273 -2.470261,-6.238903 -1.479966,-1.430628 -3.315569,-2.156429 -5.031523,-2.556818 -1.661762,-0.387745 -3.074943,-0.476965 -4.199216,-0.466086 z m 7.677113,9.807795 c -0.107386,1.078319 -0.515772,1.699683 -1.207386,2.261629 -0.80583,0.654727 -2.094772,1.141283 -3.489,1.402699 -1.460545,0.273852 -2.903136,0.309308 -4.008341,0.281872 l 0,1.136363 c 1.105205,0.02744 2.547796,-0.0081 4.008341,-0.281871 1.394228,-0.261416 2.68317,-0.747972 3.489,-1.402699 0.805807,-0.654726 1.253989,-1.349283 1.253989,-2.807617 0,-0.221528 -0.0308,-0.394314 -0.04659,-0.590376 z"
       id="path3797-7-6-4"
       inkscape:connector-curvature="0" />
    <path
       style="color:#000000;font-style:normal;font-variant:normal;font-weight:normal;font-stretch:normal;font-size:medium;line-height:normal;font-family:sans-serif;text-indent:0;text-align:start;text-decoration:none;text-decoration-line:none;text-decoration-style:solid;text-decoration-color:#000000;letter-spacing:normal;word-spacing:normal;text-transform:none;direction:ltr;block-progression:tb;writing-mode:lr-tb;baseline-shift:baseline;text-anchor:start;white-space:normal;clip-rule:nonzero;display:inline;overflow:visible;visibility:visible;opacity:0.2;isolation:auto;mix-blend-mode:normal;color-interpolation:sRGB;color-interpolation-filters:linearRGB;solid-color:#000000;solid-opacity:1;fill:#000000;fill-opacity:1;fill-rule:nonzero;stroke:none;stroke-width:5;stroke-linecap:square;stroke-linejoin:miter;stroke-miterlimit:4;stroke-dasharray:none;stroke-dashoffset:0;stroke-opacity:1;color-rendering:auto;image-rendering:auto;shape-rendering:auto;text-rendering:auto;enable-background:accumulate"
       d="m 31.999482,10.053291 c -0.16262,0.08007 -0.33733,0.164841 -0.59766,0.318359 -0.67962,0.400764 -1.61359,1.021478 -2.68359,1.777344 -2.14002,1.511731 -4.8401,3.570095 -7.49219,5.654297 -2.6521,2.084204 -5.26204,4.197442 -7.25195,5.833985 -0.99495,0.81827 -1.8354,1.518515 -2.445313,2.033203 -0.22227,0.187562 -0.369777,0.312121 -0.543307,0.465241 0.0119,0.06626 0.01089,0.07847 0.02539,0.152344 0.03163,0.160622 0.12318,0.491281 0.166016,0.685547 0.03695,-0.03154 0.249091,-0.216377 0.3519,-0.303132 0.609923,-0.514688 1.450363,-1.214933 2.445313,-2.033203 1.98991,-1.636543 4.59985,-3.749781 7.25195,-5.833985 2.65209,-2.084202 5.35217,-4.142566 7.49219,-5.654297 1.07,-0.755866 2.00593,-1.37658 2.68555,-1.777344 0.26033,-0.153518 0.43308,-0.238294 0.5957,-0.318359 0.16261,0.08007 0.33536,0.16484 0.5957,0.318359 0.67961,0.400764 1.61553,1.021478 2.68555,1.777344 2.14002,1.511733 4.8401,3.570094 7.49219,5.654297 2.65208,2.084204 5.26205,4.197442 7.25195,5.833985 0.99494,0.818271 1.83539,1.518516 2.44531,2.033203 0.10281,0.08676 0.316079,0.271594 0.353029,0.303132 0.04284,-0.194266 0.13439,-0.524925 0.16602,-0.685547 0.0146,-0.07389 0.01154,-0.08607 0.02344,-0.152344 -0.17352,-0.153118 -0.320229,-0.27768 -0.542489,-0.465241 -0.60992,-0.514687 -1.45037,-1.214932 -2.44531,-2.033203 -1.9899,-1.636543 -4.59987,-3.749781 -7.25195,-5.833985 -2.65209,-2.084203 -5.35217,-4.142564 -7.49219,-5.654297 -1.07002,-0.755866 -2.00594,-1.37658 -2.68555,-1.777344 -0.26034,-0.153519 -0.43309,-0.238289 -0.595699,-0.318359 z m -11.5332,14.84375 0,1 1.98828,0 4.375,0 0,-1 -4.375,0 z M 7.132294,25.799385 c -0.0096,0.10857 -0.01259,0.20673 -0.01953,0.285156 -0.02318,0.26142 -0.009,0.441092 0.0059,0.626953 0.0309,0.371718 0.09299,0.741379 0.179687,1.181641 0.173375,0.880527 0.449633,2.007938 0.800781,3.333984 0.702319,2.652095 1.705085,6.077702 2.757813,9.50586 1.052727,3.428159 2.153518,6.851816 3.042968,9.484375 0.44473,1.31628 0.83608,2.433818 1.15039,3.271484 0.15715,0.418831 0.29142,0.763371 0.41797,1.054688 0.0632,0.145659 0.12354,0.276901 0.19727,0.417968 0.0737,0.141069 0.07683,0.250177 0.43359,0.615235 0.54484,0.557626 0.78311,0.519522 0.98633,0.582031 0.2032,0.06251 0.364,0.09496 0.53515,0.125 0.34227,0.06007 0.71424,0.101257 1.15821,0.140625 0.88792,0.07874 2.04532,0.140006 3.41015,0.189453 2.72965,0.09888 6.26793,0.148438 9.81055,0.148438 3.54261,0 7.0809,-0.04955 9.81055,-0.148438 1.36483,-0.04945 2.52223,-0.110716 3.41015,-0.189453 0.44396,-0.03936 0.81788,-0.08055 1.16016,-0.140625 0.17114,-0.03004 0.32999,-0.06249 0.5332,-0.125 0.20321,-0.06251 0.44149,-0.0244 0.98633,-0.582031 0.35668,-0.365058 0.35986,-0.474166 0.43359,-0.615235 0.0737,-0.141068 0.134,-0.272309 0.19727,-0.417968 0.12656,-0.291317 0.26081,-0.635857 0.41797,-1.054688 0.31432,-0.837666 0.70761,-1.955204 1.15234,-3.271484 0.88945,-2.632559 1.98635,-6.056216 3.03906,-9.484375 1.05273,-3.428158 2.05746,-6.853764 2.75977,-9.50586 0.35116,-1.326045 0.62741,-2.453458 0.80078,-3.333984 0.0867,-0.440262 0.14878,-0.809922 0.17969,-1.181641 0.0155,-0.185861 0.02856,-0.365533 0.0059,-0.626953 -0.007,-0.07844 -0.0099,-0.176562 -0.01953,-0.285156 -0.03294,0.344229 -0.08577,0.686252 -0.16602,1.09375 -0.17337,0.880526 -0.44962,2.007939 -0.80078,3.333984 -0.70231,2.652096 -1.70508,6.077702 -2.75781,9.50586 -1.05272,3.428159 -2.15157,6.851816 -3.04102,9.484375 -0.44473,1.31628 -0.83802,2.433814 -1.15234,3.271484 -0.15716,0.41883 -0.29141,0.763368 -0.41797,1.054688 -0.06327,0.145659 -0.12357,0.276898 -0.19727,0.417968 -0.07373,0.14107 -0.07496,0.250175 -0.43164,0.615235 -0.54484,0.55765 -0.78507,0.519531 -0.98828,0.582031 -0.20321,0.06249 -0.36206,0.095 -0.5332,0.125 -0.34228,0.06008 -0.7162,0.101225 -1.16016,0.140625 -0.88792,0.07874 -2.04532,0.139953 -3.41015,0.189453 -2.72965,0.0989 -6.26794,0.148438 -9.81055,0.148438 -3.54262,-10e-7 -7.0809,-0.04954 -9.81055,-0.148438 -1.36483,-0.04944 -2.52223,-0.110753 -3.41015,-0.189453 -0.44397,-0.03937 -0.81594,-0.08053 -1.15821,-0.140625 -0.17115,-0.02999 -0.33195,-0.0625 -0.53515,-0.125 -0.20322,-0.06251 -0.44149,-0.02441 -0.98633,-0.582031 -0.35676,-0.36506 -0.35989,-0.474165 -0.43359,-0.615235 -0.07373,-0.14106 -0.13407,-0.272309 -0.19727,-0.417968 -0.12655,-0.291321 -0.26082,-0.635858 -0.41797,-1.054688 -0.31431,-0.83767 -0.70566,-1.955204 -1.15039,-3.271484 -0.88945,-2.632559 -1.990238,-6.056216 -3.042968,-9.484375 C 9.804255,36.304821 8.801492,32.879214 8.099172,30.227119 7.748022,28.901073 7.471761,27.773662 7.298391,26.893135 7.218121,26.485637 7.165304,26.143614 7.132375,25.799385 Z m 24.419918,6.945312 c -0.44311,0.0035 -0.46027,0.02193 -0.74609,0.04102 l 0,1 c 0.28582,-0.01909 0.30298,-0.03747 0.74609,-0.04102 0.99605,-0.008 2.30722,0.05788 3.57422,0.353516 1.267,0.295634 2.41462,0.810957 3.17188,1.542969 0.65445,0.632638 1.11481,1.403542 1.22851,2.720703 0.0069,-0.117287 0.0293,-0.211156 0.0293,-0.339844 0,-1.735538 -0.50056,-2.648845 -1.25781,-3.380859 -0.75726,-0.732012 -1.90488,-1.247335 -3.17188,-1.542969 -1.267,-0.295635 -2.57817,-0.361516 -3.57422,-0.353516 z m 11.95508,5.736329 c -0.1306,2.311311 -1.21488,4.231108 -2.69726,5.435546 -1.58055,1.284195 -3.47413,1.889435 -5.26172,2.22461 -3.57519,0.670349 -6.97852,0.216797 -6.97852,0.216797 l -1.74023,-0.216797 0,1 1.74023,0.216797 c 0,0 3.40333,0.453552 6.97852,-0.216797 1.78759,-0.335175 3.68117,-0.940415 5.26172,-2.22461 1.58054,-1.284193 2.72265,-3.375592 2.72265,-5.894531 0,-0.184633 -0.01587,-0.361076 -0.02539,-0.541015 z"
       id="path3797-7-6-5"
       inkscape:connector-curvature="0"
       sodipodi:nodetypes="ccsssccccssssccssssccccsssssccccccccccccsssscccccssssccssccsssscccccssssccsccccssccccccsssscccccccsscsssccssccccsssc" />
  </g>
</svg>
